<svg width="227" height="25" viewBox="0 0 227 25" fill="none" xmlns="http://www.w3.org/2000/svg">
<g opacity="0.5" filter="url(#filter0_d_1_465)">
<path d="M9.10468 3.78597V3.48858C9.10468 3.21872 9.32277 3 9.59185 3C9.86092 3 10.079 3.21872 10.079 3.48858V3.78597C10.079 4.05583 9.86092 4.27455 9.59185 4.27455C9.32277 4.27455 9.10468 4.05578 9.10468 3.78597ZM4.3935 5.31361C4.48373 5.47045 4.64747 5.55812 4.81592 5.55812C4.89852 5.55812 4.98226 5.537 5.05891 5.49265C5.29199 5.3578 5.37194 5.059 5.23748 4.8253L5.08933 4.56776C4.95482 4.334 4.65684 4.25387 4.42392 4.38867C4.19084 4.52352 4.11094 4.82231 4.24535 5.05602L4.3935 5.31361ZM14.1246 5.49265C14.2013 5.53706 14.285 5.55818 14.3677 5.55818C14.536 5.55818 14.6998 5.4705 14.79 5.31377L14.9383 5.05624C15.0728 4.82253 14.993 4.52373 14.7599 4.38883C14.527 4.25398 14.229 4.33405 14.0945 4.56771L13.9462 4.82524C13.8117 5.0589 13.8915 5.35769 14.1246 5.49265ZM17.8651 9.06491C17.9478 9.06491 18.0316 9.04379 18.1083 8.99933L18.3651 8.85064C18.5981 8.71568 18.6779 8.41683 18.5433 8.18318C18.4088 7.94953 18.1109 7.86945 17.8778 8.00447L17.621 8.15316C17.3881 8.28812 17.3083 8.58691 17.4428 8.82062C17.533 8.97729 17.6967 9.06491 17.8651 9.06491ZM19.1315 17.73C18.4989 18.9874 16.7311 19.8322 14.7326 19.8322C13.3626 19.8322 12.0792 19.4359 11.2068 18.7573C10.707 19.1009 10.1794 19.322 9.65659 19.3896C9.63277 19.3927 9.6089 19.3939 9.58584 19.3936C9.56635 19.3935 9.54676 19.3922 9.52716 19.3896C9.00433 19.322 8.47668 19.1008 7.9769 18.7573C7.10445 19.4359 5.82121 19.8322 4.45109 19.8322C2.45259 19.8322 0.684836 18.9874 0.0522279 17.73C-0.0173822 17.5916 -0.0174364 17.4282 0.0522279 17.2898C0.518984 16.3618 1.58636 15.6581 2.93704 15.3532C2.23618 14.3548 1.98026 13.1752 2.29767 12.166C2.33653 12.0425 2.42271 11.9395 2.53719 11.8797C3.33765 11.4615 4.35285 11.4312 5.34108 11.7785C5.48777 11.2911 5.71863 10.867 6.03145 10.5364C6.13846 10.4233 6.293 10.3682 6.4471 10.3882C6.70265 10.4212 6.95927 10.491 7.21336 10.5937C7.72878 9.50122 8.48853 8.68647 9.38854 8.27226C9.51747 8.21287 9.6659 8.21287 9.79489 8.27226C10.6946 8.68626 11.4541 9.50046 11.9696 10.5923C12.2237 10.4904 12.4806 10.4213 12.7366 10.3882C12.8909 10.3682 13.0452 10.4233 13.1522 10.5364C13.4651 10.867 13.6959 11.2911 13.8426 11.7784C14.8309 11.4311 15.846 11.4615 16.6464 11.8796C16.7609 11.9395 16.8471 12.0425 16.8859 12.1659C17.2034 13.1751 16.9475 14.3547 16.2466 15.3531C17.5973 15.658 18.6647 16.3617 19.1315 17.2897C19.2011 17.4282 19.2011 17.5916 19.1315 17.73ZM13.2328 16.344C13.7619 16.2122 14.2874 15.9407 14.7503 15.5512C15.6958 14.7556 16.1911 13.5971 16.0077 12.6609C15.4354 12.438 14.7217 12.4726 14.0183 12.7556C14.0859 13.6679 13.9219 14.6998 13.5166 15.7154C13.4305 15.9313 13.3355 16.1412 13.2328 16.344ZM8.06762 11.0698C8.62883 11.4705 9.15232 12.0251 9.59082 12.6885C10.0315 12.018 10.5545 11.4642 11.1143 11.0659C10.7391 10.2528 10.202 9.6169 9.59179 9.2655C8.98057 9.6175 8.44279 10.2549 8.06762 11.0698ZM4.43323 15.5511C4.89609 15.9407 5.42179 16.2123 5.9509 16.3441C5.84816 16.1411 5.75328 15.9313 5.66705 15.7153C5.26189 14.6998 5.09788 13.6678 5.16538 12.7556C4.46202 12.4725 3.74828 12.4379 3.17592 12.6608C2.99253 13.5971 3.48775 14.7555 4.43323 15.5511ZM7.20729 18.1094C6.99749 17.8978 6.7971 17.6641 6.60927 17.4116C5.64388 17.395 4.63675 16.9982 3.8069 16.2997C3.77199 16.2703 3.73767 16.2407 3.70378 16.2106C2.51722 16.358 1.52276 16.8485 1.05486 17.5098C1.62371 18.3122 2.9686 18.8551 4.45098 18.8551C5.50342 18.8551 6.51 18.5767 7.20729 18.1094ZM9.4025 14.4256C8.91702 13.2087 8.1053 12.2052 7.25206 11.6987C7.22824 11.6874 7.20572 11.6743 7.18456 11.6597C6.98266 11.5463 6.77897 11.4611 6.57696 11.4077C6.375 11.6974 6.23979 12.0679 6.17251 12.4899C6.17077 12.5157 6.16699 12.5414 6.16109 12.5669C6.04866 13.3821 6.18279 14.3778 6.57155 15.3523C6.96393 16.3358 7.56926 17.1798 8.23748 17.7348C8.25307 17.7461 8.26812 17.7585 8.28257 17.7718C8.64464 18.0643 9.02403 18.2716 9.39709 18.3703C9.99587 17.5117 10.0078 15.9429 9.4025 14.4256ZM12.612 15.3522C13.0007 14.3782 13.1348 13.3827 13.0227 12.5677C13.0165 12.5415 13.0126 12.5151 13.0109 12.4888C12.9436 12.0672 12.8084 11.697 12.6066 11.4076C12.4076 11.46 12.2067 11.5432 12.0071 11.654C11.9808 11.673 11.9521 11.6896 11.9214 11.7034C11.2587 12.0984 10.6192 12.794 10.1377 13.6698C10.1973 13.7983 10.2538 13.9293 10.3071 14.0626C10.8595 15.4473 10.9636 16.8623 10.6438 17.9631C10.7307 17.9039 10.8171 17.8396 10.9024 17.7706C10.9159 17.7582 10.93 17.7467 10.9445 17.7361C11.6134 17.181 12.2194 16.3364 12.612 15.3522ZM18.1287 17.5098C17.6608 16.8485 16.6663 16.3581 15.4797 16.2106C15.4459 16.2406 15.4114 16.2704 15.3766 16.2997C14.5467 16.9981 13.5397 17.3949 12.5744 17.4115C12.3865 17.6641 12.1862 17.8977 11.9763 18.1094C12.6737 18.5766 13.6803 18.855 14.7326 18.855C16.2149 18.8551 17.5599 18.3122 18.1287 17.5098ZM14.3145 21.1235C14.1116 20.9462 13.8039 20.9675 13.6271 21.171C13.3199 21.5247 11.8648 22.0228 9.59185 22.0228C7.3188 22.0228 5.8637 21.5247 5.55652 21.171C5.37978 20.9675 5.07206 20.9462 4.86918 21.1235C4.66631 21.3007 4.64509 21.6093 4.82182 21.8128C5.58293 22.6891 7.86707 23 9.5919 23C11.3167 23 13.6008 22.689 14.3619 21.8128C14.5386 21.6093 14.5173 21.3007 14.3145 21.1235ZM3.18766 10.7855C3.44645 10.8586 3.71569 10.7074 3.78866 10.4477C4.51691 7.85539 6.90325 6.04486 9.59185 6.04486C12.2804 6.04486 14.6668 7.85539 15.395 10.4477C15.4556 10.6632 15.651 10.8039 15.8637 10.8039C15.9074 10.8039 15.9519 10.798 15.996 10.7855C16.255 10.7123 16.4058 10.4424 16.3328 10.1827C15.4868 7.17105 12.7148 5.06769 9.59185 5.06769C6.46886 5.06769 3.69685 7.1711 2.85087 10.1827C2.7779 10.4424 2.92865 10.7123 3.18766 10.7855ZM9.59185 21.3579C10.0104 21.3579 11.4148 21.3131 11.9147 20.7373C12.0913 20.5337 12.07 20.2251 11.8671 20.0479C11.6653 19.8716 11.3596 19.8919 11.1826 20.0925C11.0715 20.1937 10.4948 20.3808 9.59185 20.3808C8.68865 20.3808 8.11196 20.1937 8.00094 20.0924C7.82383 19.8919 7.51827 19.8716 7.31642 20.048C7.11349 20.2252 7.09227 20.5338 7.269 20.7373C7.76899 21.3132 9.17337 21.3579 9.59185 21.3579ZM0.818535 8.85053L1.07516 8.99928C1.15192 9.04374 1.23571 9.06491 1.31847 9.06491C1.48676 9.06491 1.65045 8.97735 1.74073 8.82067C1.87535 8.58702 1.79562 8.28817 1.56265 8.15321L1.30602 8.00447C1.07321 7.86956 0.775069 7.94936 0.640504 8.18307C0.505885 8.41667 0.585617 8.71552 0.818535 8.85053Z" fill="white"/>
</g>
<path d="M129.246 8.15962C128.456 6.53846 127.098 5.63077 125.785 4.75192C124.806 4.09615 123.883 3.47692 123.229 2.59038L123.108 2.42692C122.723 1.90962 122.285 1.32308 122.217 0.830769C122.212 0.790385 122.189 0.757692 122.177 0.717308C122.16 0.65 122.14 0.586538 122.11 0.525C122.087 0.475 122.054 0.430769 122.019 0.384615C121.979 0.332692 121.94 0.282692 121.89 0.240385C121.842 0.198077 121.79 0.169231 121.737 0.136539C121.687 0.107692 121.64 0.0807692 121.585 0.0615385C121.517 0.0365385 121.448 0.0269231 121.375 0.0192307C121.339 0.0173077 121.308 0 121.269 0C121.246 0 121.227 0.0115385 121.206 0.0134616C121.183 0.0153847 121.162 0.00576922 121.139 0.00961537C121.096 0.0153846 121.064 0.0384616 121.023 0.05C120.958 0.0673077 120.896 0.0846154 120.839 0.115385C120.785 0.142308 120.739 0.176923 120.692 0.215385C120.642 0.253846 120.594 0.292308 120.554 0.340385C120.514 0.386538 120.485 0.436538 120.454 0.488462C120.423 0.542308 120.394 0.594231 120.373 0.653846C120.352 0.713462 120.344 0.775 120.337 0.840385C120.327 0.878846 120.308 0.917308 120.308 0.961539V18.0962C119.502 17.6077 118.51 17.3077 117.423 17.3077C114.771 17.3077 112.615 19.0327 112.615 21.1538C112.615 23.275 114.771 25 117.423 25C120.075 25 122.231 23.275 122.231 21.1538V9.94615C123.675 10.4981 126.039 11.9038 126.689 15.1865C126.567 15.3654 126.452 15.5596 126.317 15.7115C125.965 16.1096 126.006 16.7173 126.404 17.0673C126.587 17.2288 126.814 17.3077 127.039 17.3077C127.306 17.3077 127.569 17.1962 127.76 16.9808C128.015 16.6904 128.244 16.3462 128.464 15.9923C128.489 15.9615 128.508 15.9327 128.529 15.9C129.306 14.6 129.821 12.9558 129.919 11.3308C129.983 10.2865 129.75 9.19038 129.246 8.15962ZM117.423 23.0769C115.86 23.0769 114.539 22.1962 114.539 21.1538C114.539 20.1115 115.86 19.2308 117.423 19.2308C118.987 19.2308 120.308 20.1115 120.308 21.1538C120.308 22.1962 118.987 23.0769 117.423 23.0769ZM128.002 11.2096C127.975 11.6596 127.906 12.1096 127.808 12.55C126.456 9.83654 124.004 8.42308 122.231 7.9V4.36731C122.985 5.17115 123.86 5.77308 124.717 6.34615C125.869 7.11731 126.958 7.84615 127.521 9.00192C127.875 9.72308 128.044 10.5096 128.002 11.2096Z" fill="white"/>
<path d="M115.5 0H103.962C103.431 0 103 0.430769 103 0.961539C103 1.49231 103.431 1.92308 103.962 1.92308H115.5C116.031 1.92308 116.462 1.49231 116.462 0.961539C116.462 0.430769 116.031 0 115.5 0Z" fill="white"/>
<path d="M115.5 5.76935H103.962C103.431 5.76935 103 6.20012 103 6.73089C103 7.26166 103.431 7.69242 103.962 7.69242H115.5C116.031 7.69242 116.462 7.26166 116.462 6.73089C116.462 6.20012 116.031 5.76935 115.5 5.76935Z" fill="white"/>
<path d="M109.731 11.5387H103.962C103.431 11.5387 103 11.9695 103 12.5002C103 13.031 103.431 13.4618 103.962 13.4618H109.731C110.262 13.4618 110.692 13.031 110.692 12.5002C110.692 11.9695 110.262 11.5387 109.731 11.5387Z" fill="white"/>
<path d="M109.731 17.3077H103.962C103.431 17.3077 103 17.7385 103 18.2693C103 18.8 103.431 19.2308 103.962 19.2308H109.731C110.262 19.2308 110.692 18.8 110.692 18.2693C110.692 17.7385 110.262 17.3077 109.731 17.3077Z" fill="white"/>
<g opacity="0.5">
<path d="M218.885 12.9424C221.631 12.9424 223.856 10.7167 223.856 7.9712C223.856 5.22568 221.631 3 218.885 3C216.14 3 213.914 5.22568 213.914 7.9712C213.914 10.7167 216.14 12.9424 218.885 12.9424Z" stroke="white" stroke-width="1.5" stroke-linecap="round" stroke-linejoin="round"/>
<path fill-rule="evenodd" clip-rule="evenodd" d="M211 19.8564C210.999 19.5069 211.077 19.1617 211.229 18.8469C211.705 17.8946 213.048 17.3898 214.162 17.1613C214.965 16.9898 215.78 16.8752 216.6 16.8184C218.117 16.6851 219.644 16.6851 221.162 16.8184C221.981 16.8759 222.796 16.9904 223.6 17.1613C224.714 17.3898 226.057 17.847 226.533 18.8469C226.838 19.4887 226.838 20.2337 226.533 20.8754C226.057 21.8754 224.714 22.3325 223.6 22.5515C222.797 22.7301 221.982 22.8479 221.162 22.9039C219.926 23.0086 218.685 23.0277 217.447 22.961C217.162 22.961 216.886 22.961 216.6 22.9039C215.783 22.8486 214.971 22.7308 214.171 22.5515C213.048 22.3325 211.714 21.8754 211.229 20.8754C211.078 20.5569 211 20.2088 211 19.8564Z" stroke="white" stroke-width="1.5" stroke-linecap="round" stroke-linejoin="round"/>
</g>
<defs>
<filter id="filter0_d_1_465" x="-120" y="-113" width="259.184" height="260" filterUnits="userSpaceOnUse" color-interpolation-filters="sRGB">
<feFlood flood-opacity="0" result="BackgroundImageFix"/>
<feColorMatrix in="SourceAlpha" type="matrix" values="0 0 0 0 0 0 0 0 0 0 0 0 0 0 0 0 0 0 127 0" result="hardAlpha"/>
<feOffset dy="4"/>
<feGaussianBlur stdDeviation="60"/>
<feColorMatrix type="matrix" values="0 0 0 0 1 0 0 0 0 1 0 0 0 0 1 0 0 0 1 0"/>
<feBlend mode="normal" in2="BackgroundImageFix" result="effect1_dropShadow_1_465"/>
<feBlend mode="normal" in="SourceGraphic" in2="effect1_dropShadow_1_465" result="shape"/>
</filter>
</defs>
</svg>
